#!OML:ASF G:\acrobat\cartwheel_test\acrobat_wednesday\Session 1\acrobatwednesday.ASF
:FULLY-SPECIFIED
:DEGREES
16
root -15.4027 16.2801 -8.1549 25.9381 56.2764 -15.3267
lowerback 22.216 0.695814 -5.54811
upperback 7.41715 0.274828 3.92374
thorax -4.2762 0.173986 7.38525
lowerneck -20.6141 -0.722991 -6.85731
upperneck 14.5899 -1.82811 15.4341
head 8.16004 0.349057 6.18555
rclavicle -2.62396e-014 -1.82882e-014
rhumerus -15.0561 -27.3687 -20.2846
rradius 42.5496
rwrist 9.68953
rhand -49.4113 -15.95
rfingers 7.12502
rthumb -22.0239 -44.716
lclavicle -2.62396e-014 -1.82882e-014
lhumerus 27.6444 12.8185 1.34517
lradius 36.2956
lwrist 50.9625
lhand -38.0585 -12.8528
lfingers 7.12502
lthumb -11.0956 16.8339
rfemur -49.6719 -9.87794 19.1573
rtibia 58.9422
rfoot -15.6567 -7.35661
rtoes 1.17251
lfemur -41.4568 12.7324 -21.1422
ltibia 63.3145
lfoot -2.42545 -10.1385
ltoes 49.2051
17
root -15.451 16.1532 -8.0599 25.6696 55.0247 -15.1192
lowerback 22.457 0.912592 -5.48239
upperback 7.6015 0.577731 4.17213
thorax -4.24771 0.314322 7.54845
lowerneck -20.5717 -0.57261 -6.74916
upperneck 14.4368 -1.7088 15.8617
head 8.09525 0.450759 6.32755
rclavicle 1.98785e-014 4.05521e-014
rhumerus -13.8219 -25.2498 -22.9765
rradius 44.2748
rwrist 9.24697
rhand -47.95 -15.7939
rfingers 7.12502
rthumb -20.6204 -44.7186
lclavicle 1.98785e-014 4.05521e-014
lhumerus 28.3585 13.626 0.362995
lradius 36.3777
lwrist 49.3335
lhand -37.283 -13.5017
lfingers 7.12502
lthumb -10.3476 16.2237
rfemur -53.206 -8.9434 18.621
rtibia 63.4303
rfoot -14.5144 -5.71228
rtoes 2.00671
lfemur -35.4131 12.158 -21.0317
ltibia 57.2001
lfoot -2.64495 -10.2792
ltoes 54.2169
18
root -15.512 15.9942 -7.97006 26.3967 54.4322 -14.7581
lowerback 22.2089 0.721031 -5.0406
upperback 7.51738 0.439747 4.37477
thorax -4.19495 0.246152 7.54676
lowerneck -20.4907 -0.418443 -6.34366
upperneck 14.0256 -1.54737 15.7439
head 7.9224 0.525525 6.21569
rclavicle -2.38542e-014 -2.8625e-014
rhumerus -12.2015 -23.4538 -25.8845
rradius 45.38
rwrist 10.5972
rhand -47.55 -14.8668
rfingers 7.12502
rthumb -20.236 -43.8327
lclavicle -2.38542e-014 -2.8625e-014
lhumerus 28.9558 14.869 -0.879955
lradius 36.6537
lwrist 47.7753
lhand -36.9398 -14.0381
lfingers 7.12502
lthumb -10.0166 15.7036
rfemur -57.5739 -8.73949 18.5313
rtibia 67.2484
rfoot -14.2204 -3.47605
rtoes 0.0621011
lfemur -30.706 10.487 -20.892
ltibia 50.0918
lfoot -4.37094 -11.8765
ltoes 56.2796
19
root -15.5839 15.7915 -7.88558 27.6841 54.056 -14.2729
lowerback 21.9201 0.380966 -4.56403
upperback 7.15308 0.112068 4.61383
thorax -4.39697 0.0991393 7.61566
lowerneck -21.0358 -0.126041 -6.00294
upperneck 14.4623 -1.23463 15.496
head 8.11853 0.699516 6.13757
rclavicle -8.74653e-015 2.22639e-014
rhumerus -9.95284 -21.4814 -28.6815
rradius 46.9129
rwrist 10.1997
rhand -44.3605 -17.4869
rfingers 7.12502
rthumb -17.1682 -46.7484
lclavicle -8.74653e-015 2.22639e-014
lhumerus 29.3521 16.2086 -2.17015
lradius 37.0639
lwrist 46.4369
lhand -36.9444 -14.563
lfingers 7.12502
lthumb -10.021 15.1784
rfemur -62.6145 -8.93276 18.703
rtibia 70.8198
rfoot -14.2972 -0.949943
rtoes -2.38698
lfemur -26.9001 8.27294 -20.8898
ltibia 43.3459
lfoot -5.42837 -12.7989
ltoes 58.7348
20
root -15.6592 15.5468 -7.79968 28.5162 53.6194 -14.1678
lowerback 21.9651 0.121423 -4.04725
upperback 6.8139 -0.0986009 4.96087
thorax -4.76047 0.0139753 7.76109
lowerneck -21.6866 0.15353 -5.8936
upperneck 15.0242 -0.854112 15.0811
head 8.36612 0.878076 6.05804
rclavicle 2.38542e-014 -7.79236e-014
rhumerus -7.18299 -19.3643 -30.9558
rradius 48.0918
rwrist 9.8811
rhand -43.3343 -15.2482
rfingers 7.12502
rthumb -16.1803 -44.5929
lclavicle 2.38542e-014 -7.79236e-014
lhumerus 29.9653 18.079 -2.80924
lradius 37.3434
lwrist 44.9237
lhand -36.9164 -15.1819
lfingers 7.12502
lthumb -9.99395 14.5609
rfemur -67.5677 -9.003 19.2828
rtibia 74.1993
rfoot -14.2408 2.09746
rtoes -5.61981
lfemur -23.1262 5.74611 -20.6861
ltibia 37.5452
lfoot -1.60591 -16.9178
ltoes 63.3884
21
root -15.7658 15.276 -7.72234 29.6237 53.0806 -13.0239
lowerback 22.6048 0.0236626 -4.29812
upperback 6.90561 -0.267776 5.15369
thorax -4.95029 -0.0627254 8.18992
lowerneck -22.0657 0.311079 -6.0727
upperneck 14.575 -0.501477 14.9714
head 8.23775 1.02439 6.08462
rclavicle -9.54166e-015 3.37934e-014
rhumerus -3.8433 -17.8388 -32.7782
rradius 49.1192
rwrist 10.2598
rhand -43.1439 -13.6806
rfingers 7.12502
rthumb -15.9969 -43.0401
lclavicle -9.54166e-015 3.37934e-014
lhumerus 31.2245 20.7331 -2.94051
lradius 37.3502
lwrist 43.497
lhand -37.0878 -15.8235
lfingers 7.12502
lthumb -10.1594 13.9112
rfemur -72.0115 -9.08689 19.0276
rtibia 77.4909
rfoot -14.0468 4.33047
rtoes -5.52933
lfemur -21.6834 2.8971 -21.1933
ltibia 36.2135
lfoot -2.76207 -22.96
ltoes 63.0466
22
root -15.9122 15.0073 -7.64608 30.9867 53.074 -12.2095
lowerback 22.9662 -0.0278298 -4.51371
upperback 7.09864 -0.344414 5.5632
thorax -4.89626 -0.105723 8.81178
lowerneck -21.9067 0.409517 -6.21035
upperneck 12.9205 -0.148817 15.0031
head 7.62225 1.14684 6.09005
rclavicle -2.62396e-014 9.62118e-014
rhumerus -0.332584 -16.4044 -33.8966
rradius 50.1281
rwrist 10.942
rhand -41.5968 -16.5283
rfingers 7.12502
rthumb -14.5067 -46.0011
lclavicle -2.62396e-014 9.62118e-014
lhumerus 33.0181 23.6338 -2.82416
lradius 37.2659
lwrist 42.3722
lhand -37.7663 -16.446
lfingers 7.12502
lthumb -10.8138 13.2557
rfemur -76.8457 -8.90767 19.2413
rtibia 80.4613
rfoot -13.2064 4.56101
rtoes -2.84738
lfemur -22.0396 0.772028 -21.2279
ltibia 36.4874
lfoot 22.0236 -6.01819
ltoes 13.8998
23
root -16.0931 14.7728 -7.554 33.8273 52.8695 -10.3426
lowerback 23.5036 0.219802 -5.87181
upperback 7.0428 -0.305243 5.94875
thorax -5.20004 -0.0720873 10.0843
lowerneck -19.9747 0.457377 -7.0694
upperneck 9.4617 0.382135 15.7758
head 6.12772 1.28862 6.38484
rclavicle -6.12257e-014 -2.54444e-014
rhumerus 3.1275 -14.4826 -34.3058
rradius 51.0693
rwrist 10.8219
rhand -40.9072 -16.152
rfingers 7.12502
rthumb -13.8422 -45.6714
lclavicle -6.12257e-014 -2.54444e-014
lhumerus 34.872 26.2101 -2.78384
lradius 37.3857
lwrist 41.5302
lhand -39.025 -17.7389
lfingers 7.12502
lthumb -12.0277 11.8955
rfemur -82.2952 -8.54025 19.3378
rtibia 83.2777
rfoot -11.2541 3.30263
rtoes -2.40208
lfemur -23.9295 0.00983559 -21.9891
ltibia 37.9537
lfoot 21.4996 -12.2625
ltoes 40.0303
24
root -16.2559 14.6269 -7.42726 36.8107 52.8425 -9.45324
lowerback 24.0766 0.51046 -6.67782
upperback 6.75262 -0.0981454 6.41086
thorax -5.83483 0.073644 11.0919
lowerneck -18.8169 0.586143 -7.51129
upperneck 7.14826 0.883924 15.9483
head 5.15401 1.43667 6.46404
rclavicle -3.10104e-014 -9.26337e-014
rhumerus 6.87777 -12.7305 -34.7579
rradius 51.8426
rwrist 10.2526
rhand -40.3505 -16.4561
rfingers 7.12502
rthumb -13.3056 -46.0113
lclavicle -3.10104e-014 -9.26337e-014
lhumerus 36.7546 28.8238 -2.84065
lradius 37.5874
lwrist 40.4266
lhand -40.0028 -19.3499
lfingers 7.12502
lthumb -12.9705 10.2269
rfemur -87.5677 -7.38563 20.5994
rtibia 85.2486
rfoot -9.57016 1.95583
rtoes -1.65867
lfemur -26.8259 -0.220054 -21.7429
ltibia 38.9183
lfoot 16.6218 -20.8925
ltoes 55.7526
25
root -16.3329 14.5465 -7.25299 39.6925 53.3437 -10.3441
lowerback 23.3478 0.940732 -5.95167
upperback 6.53056 0.703301 7.08262
thorax -5.91141 0.471049 11.1874
lowerneck -19.652 0.148297 -7.94077
upperneck 6.79742 0.41193 16.5636
head 5.24859 1.26608 6.71656
rclavicle -8.3092e-014 -5.92378e-014
rhumerus 10.4189 -12.4755 -35.1182
rradius 52.1036
rwrist 10.4963
rhand -39.5483 -15.0175
rfingers 7.12502
rthumb -12.5323 -44.6217
lclavicle -8.3092e-014 -5.92378e-014
lhumerus 40.7285 32.3133 -0.757331
lradius 37.3754
lwrist 38.2717
lhand -40.1023 -20.3197
lfingers 7.12502
lthumb -13.0664 9.25097
rfemur -92.423 -5.652 23.3561
rtibia 86.2804
rfoot -9.49395 1.8709
rtoes -1.08307
lfemur -30.1385 -0.167005 -20.2
ltibia 38.0619
lfoot 24.6435 -10.8173
ltoes 35.7745
26
root -16.3407 14.5682 -6.91495 39.7076 52.5437 -11.4941
lowerback 25.8936 2.48789 -6.78229
upperback 6.99759 2.41536 7.11256
thorax -7.09372 1.35019 11.2571
lowerneck -19.3018 -0.13687 -7.87886
upperneck 5.25868 0.111754 17.4836
head 4.77709 1.13895 6.94131
rclavicle 2.34566e-014 -2.71341e-014
rhumerus 13.6396 -12.9167 -36.6542
rradius 52.853
rwrist 8.96107
rhand -38.4435 -16.1647
rfingers 7.12502
rthumb -11.467 -45.8311
lclavicle 2.34566e-014 -2.71341e-014
lhumerus 46.6228 35.6653 2.36841
lradius 37.2054
lwrist 36.1585
lhand -40.293 -21.5319
lfingers 7.12502
lthumb -13.2502 8.02693
rfemur -92.0225 -2.23469 24.7451
rtibia 85.5987
rfoot -10.9497 2.33091
rtoes -0.33929
lfemur -27.5825 0.832052 -18.7473
ltibia 32.7932
lfoot 26.7778 -3.45763
ltoes 4.47283
27
root -16.2712 14.6289 -6.66118 44.2717 54.3353 -9.74703
lowerback 27.059 2.43316 -5.09243
upperback 6.95922 2.82436 7.60736
thorax -7.79024 1.56644 10.6888
lowerneck -21.0886 -0.648426 -7.22084
upperneck 5.0216 -0.571444 16.6556
head 5.0695 0.834673 6.52019
rclavicle 3.50358e-014 9.42115e-014
rhumerus 17.8253 -13.8139 -36.9531
rradius 52.7756
rwrist 7.20475
rhand -39.3336 -14.8517
rfingers 7.12502
rthumb -12.3253 -44.4684
lclavicle 3.50358e-014 9.42115e-014
lhumerus 53.3024 38.9741 7.94547
lradius 37.336
lwrist 34.9024
lhand -40.1377 -23.0866
lfingers 7.12502
lthumb -13.1006 6.48191
rfemur -93.229 -2.41258 25.4112
rtibia 84.4662
rfoot -12.9335 2.5343
rtoes -0.169246
lfemur -27.961 -1.89239 -17.924
ltibia 27.6139
lfoot 24.2412 -11.942
ltoes 29.0699
28
root -16.1516 14.7053 -6.34651 51.5181 56.2109 -5.95133
lowerback 27.3611 2.44529 -3.1435
upperback 6.32003 3.38864 7.68491
thorax -8.71673 1.85082 9.4038
lowerneck -21.5387 -1.27809 -6.03382
upperneck 4.0858 -1.55648 16.0575
head 4.9566 0.328179 6.0047
rclavicle -3.97569e-016 -5.0044e-014
rhumerus 20.8877 -15.6069 -36.8703
rradius 51.4402
rwrist 5.79984
rhand -40.2921 -13.0076
rfingers 7.12502
rthumb -13.2493 -42.5665
lclavicle -3.97569e-016 -5.0044e-014
lhumerus 60.3468 39.7813 13.3469
lradius 38.1381
lwrist 34.4536
lhand -40.8137 -25.5355
lfingers 7.12502
lthumb -13.7521 3.99004
rfemur -94.4125 -3.04246 24.0485
rtibia 82.2754
rfoot -14.6601 2.4818
rtoes -1.4152
lfemur -27.9542 -5.37688 -17.4276
ltibia 20.021
lfoot 21.4777 -14.7042
ltoes 29.8396
29
root -15.8986 14.8022 -5.96212 58.0616 57.7206 0.171985
lowerback 29.8303 2.98614 -2.76562
upperback 6.65717 4.48657 9.8219
thorax -9.51555 2.35096 10.4611
lowerneck -23.8261 -2.12704 -5.80204
upperneck 4.01032 -2.45999 13.4761
head 5.30229 -0.221865 5.03896
rclavicle -4.45278e-014 -1.0138e-013
rhumerus 25.4954 -17.2979 -33.272
rradius 49.0763
rwrist 3.55004
rhand -40.157 -11.8163
rfingers 7.12502
rthumb -13.1191 -41.3837
lclavicle -4.45278e-014 -1.0138e-013
lhumerus 66.3579 40.3858 21.0179
lradius 38.6881
lwrist 33.495
lhand -40.703 -28.0869
lfingers 7.12502
lthumb -13.6453 1.44581
rfemur -90.509 -4.91695 20.1589
rtibia 77.3287
rfoot -14.3228 2.3976
rtoes -0.926838
lfemur -24.9769 -4.3378 -19.1636
ltibia 12.8856
lfoot 16.5825 -11.7019
ltoes 25.4223
